<?xml version="1.0" encoding="utf-8"?>
<!-- Generator: Adobe Illustrator 26.3.1, SVG Export Plug-In . SVG Version: 6.00 Build 0)  -->
<svg version="1.1" id="Layer_1" xmlns="http://www.w3.org/2000/svg" xmlns:xlink="http://www.w3.org/1999/xlink" x="0px" y="0px"
	 viewBox="0 0 42 42" style="enable-background:new 0 0 42 42;" xml:space="preserve">
<style type="text/css">
	.st0{opacity:0.8;fill:#FFFFFF;}
	.st1{opacity:0.6;fill:#FFFFFF;}
</style>
<path class="st0" d="M21.7,23.1c0.1-1.4,0.8-2.6,1.8-3.5c1-0.8,2.3-1.4,3.8-1.4c1.5,0,2.8,0.5,3.8,1.4c1,0.9,1.7,2.1,1.8,3.5
	c0.1,1.4-0.5,2.7-1.5,3.7c-1,1-2.5,1.6-4.1,1.6s-3.1-0.6-4.1-1.6C22.2,25.9,21.7,24.6,21.7,23.1L21.7,23.1z"/>
<path class="st1" d="M13,25.6c0,0.5,0.2,1.6,0.4,2.4c0.5,1.7,1.5,3.3,2.7,4.8c1.3,1.5,2.9,2.6,4.8,3.5c2,0.9,4.1,1.3,6.3,1.3
	c2.2,0,4.3-0.5,6.3-1.3c1.9-0.8,3.5-2,4.8-3.5c1.3-1.4,2.2-3,2.7-4.8c0.3-0.9,0.4-1.8,0.5-2.7c0.1-0.9,0-1.8-0.1-2.6
	c-0.2-1.7-0.8-3.3-1.8-4.8c-0.8-1.3-1.9-2.5-3.2-3.5l0,0L23.7,4.4c0,0,0,0,0,0c-0.8-0.7-2.3-0.6-3.2,0c-0.9,0.7-1.1,1.8-0.2,2.4l0,0
	l5.4,4.4l-16.4,0h0c-1.4,0-2.7,0.9-2.9,2c-0.3,1.1,0.7,2.1,2.1,2.1l0,0l8.3,0L1.8,26.8c0,0,0,0-0.1,0c-1.4,1.1-1.9,2.9-1,4
	c0.9,1.1,2.8,1.2,4.2,0l8.1-6.6C13.1,24.2,13,25.1,13,25.6L13,25.6z M33.9,28.6c-1.7,1.7-4,2.7-6.5,2.7c-2.5,0-4.9-1-6.6-2.7
	c-0.8-0.8-1.4-1.8-1.8-2.8c-0.4-1-0.5-2.1-0.4-3.1c0.1-1,0.4-2,0.9-2.9c0.5-0.9,1.2-1.7,2-2.4c1.6-1.3,3.7-2,5.9-2
	c2.2,0,4.2,0.7,5.9,2c0.8,0.7,1.5,1.5,2,2.4c0.5,0.9,0.8,1.9,0.9,2.9c0.1,1.1,0,2.1-0.4,3.1C35.3,26.8,34.7,27.8,33.9,28.6
	L33.9,28.6z"/>
</svg>
